<svg class="animated" id="freepik_stories-retro-computer" xmlns="http://www.w3.org/2000/svg" viewBox="0 0 500 500" version="1.1" xmlns:xlink="http://www.w3.org/1999/xlink" xmlns:svgjs="http://svgjs.com/svgjs"><style>svg#freepik_stories-retro-computer:not(.animated) .animable {opacity: 0;}svg#freepik_stories-retro-computer.animated #freepik--background-simple--inject-2 {animation: 3s Infinite  linear floating;animation-delay: 0s;}svg#freepik_stories-retro-computer.animated #freepik--Mouse--inject-2 {animation: 6s Infinite  linear shake;animation-delay: 0s;}            @keyframes floating {                0% {                    opacity: 1;                    transform: translateY(0px);                }                50% {                    transform: translateY(-10px);                }                100% {                    opacity: 1;                    transform: translateY(0px);                }            }                    @keyframes shake {                10%, 90% {                    transform: translate3d(-1px, 0, 0);                  }                  20%, 80% {                    transform: translate3d(2px, 0, 0);                  }                  30%, 50%, 70% {                    transform: translate3d(-4px, 0, 0);                  }                  40%, 60% {                    transform: translate3d(4px, 0, 0);                  }            }        </style><g id="freepik--background-simple--inject-2" class="animable" style="transform-origin: 260.635px 251.305px;"><path d="M273.59,16.87c43.48,8.75,92.89,32.93,113.09,74.87,30.53,63.36,85.44,62.72,99.55,182.71a244,244,0,0,1,.7,52.75,205.25,205.25,0,0,1-4.18,25.52C465.69,426.87,409.44,473.13,345,486.55c-84.78,17.66-135-35.42-165.08-70.34S50,349.4,35.2,231.55a235.7,235.7,0,0,1-.75-54.21c4.36-41.15,21.55-85,52.33-113.85q3.47-3.24,7.15-6.28C141.83,17.56,214.31,4.94,273.59,16.87Z" style="fill: rgb(146, 227, 169); transform-origin: 260.635px 251.305px;" id="el0telgpyq46ym" class="animable"></path><g id="elel66rgdm9f"><path d="M273.59,16.87c43.48,8.75,92.89,32.93,113.09,74.87,30.53,63.36,85.44,62.72,99.55,182.71a244,244,0,0,1,.7,52.75,205.25,205.25,0,0,1-4.18,25.52C465.69,426.87,409.44,473.13,345,486.55c-84.78,17.66-135-35.42-165.08-70.34S50,349.4,35.2,231.55a235.7,235.7,0,0,1-.75-54.21c4.36-41.15,21.55-85,52.33-113.85q3.47-3.24,7.15-6.28C141.83,17.56,214.31,4.94,273.59,16.87Z" style="fill: rgb(255, 255, 255); opacity: 0.7; transform-origin: 260.635px 251.305px;" class="animable"></path></g></g><g id="freepik--Table--inject-2" class="animable" style="transform-origin: 260.37px 288.9px;"><line x1="493.53" y1="312.37" x2="27.21" y2="265.43" style="fill: none; stroke: rgb(38, 50, 56); stroke-linecap: round; stroke-linejoin: round; transform-origin: 260.37px 288.9px;" id="elh2upkhsbfgo" class="animable"></line></g><g id="freepik--Plant--inject-2" class="animable" style="transform-origin: 119.337px 193.582px;"><path d="M79.78,159.86c7.15-2.9,21.22-7.37,22.79-4.69s7.14,8,7.14,8,3.13-8.93,5.81-9.38,14.07-.67,16.53,0-6.48,6.92-14.07,11.62a38.5,38.5,0,0,1-5.09,2.64,42.46,42.46,0,0,1,.77,12.24c-.71,6.21-.82,22.93,2.19,33.46,3.3,11.55,8.28,50.09,6.07,63.33l-2.52-.42c2.16-13-2.75-50.83-6-62.21-3.11-10.87-3-28.07-2.27-34.45a39.74,39.74,0,0,0-.66-11c-3.72,1.31-6.63,1.8-9,3.34a18.55,18.55,0,0,0-5.14,4.47s-.45-2.68-1.56-2.46-16.53,3.8-19.21,3.35S72.63,162.76,79.78,159.86Z" style="fill: rgb(38, 50, 56); transform-origin: 103.147px 215.223px;" id="elv6hn4majyi" class="animable"></path><path d="M129.06,272.7c.06-.3,5.83-29.17,7.6-38.9.9-5,2.14-18.39,3.33-31.38,1.17-12.65,2.37-25.72,3.14-29.34a24.4,24.4,0,0,1,5.68-11.2l-1.8-1.8a26.73,26.73,0,0,0-6.38,12.47c-.79,3.76-1.95,16.33-3.18,29.63-1.19,12.94-2.42,26.31-3.3,31.17-1.77,9.7-7.53,38.55-7.59,38.84Z" style="fill: rgb(38, 50, 56); stroke: rgb(38, 50, 56); stroke-linecap: round; stroke-linejoin: round; transform-origin: 137.685px 216.39px;" id="elznwolebfyq" class="animable"></path><path d="M121.39,271.59l2.55-.08c0-.07-.22-7.47-.67-13.9-.43-6.23-.24-69.14,0-101.31.23-28.94.23-67.09.23-67.47H121c0,.38,0,38.52-.23,67.45-.2,27.32-.45,94.81,0,101.51C121.17,264.17,121.39,271.52,121.39,271.59Z" style="fill: rgb(38, 50, 56); stroke: rgb(38, 50, 56); stroke-linecap: round; stroke-linejoin: round; transform-origin: 122.229px 180.21px;" id="elqjfxpx7duxe" class="animable"></path><path d="M119.85,271.1l2.51-.44c-2-11.4-12.49-51.56-26.54-73.29-14.16-21.9-26.07-37.68-26.19-37.83l-2,1.54c.11.15,12,15.86,26.08,37.67C107.52,220.16,117.85,259.84,119.85,271.1Z" style="fill: rgb(38, 50, 56); stroke: rgb(38, 50, 56); stroke-linecap: round; stroke-linejoin: round; transform-origin: 94.995px 215.32px;" id="el5jymyxk83b" class="animable"></path><path d="M67.47,151.79a16.83,16.83,0,0,1,9.46-13.12c8.85-4.27,13.73-5.49,14.95,6.1a102.22,102.22,0,0,1-.3,22.27s-6.72-11.89-11.9-13.42-8.85,2.44-6.1,4,11.59,7,14.64,9.15,2.44,3,.31,7-6.41,14-6.41,14-4-17.39-5.8-20.44-8.24,0-6.1,5.19,7.93,18.91,7.93,18.91-7.93,8.55-11.9,11-7,11.29-7,11.29-2.75-2.75-10.07-5.5-17.7-7.32-17.09-10.37,3.36-6.71,9.15-14.34,14.65-15,11-15.25-23.19,8.84-25,13.11.61,12.51.61,12.51S22,186,22,181.69a14.39,14.39,0,0,1,2.44-7.63s12.51-9.46,17.7-12.2,5.49-5.8,4-5.8-17.7,4.27-20.75,8.24A15.73,15.73,0,0,0,22,171.62c-.3.92,3.66-21.36,8.85-25.93s16.17-8.24,22.58-5.8,9.15,4.27,10.07,6.1A56,56,0,0,0,67.47,151.79Z" style="fill: rgb(146, 227, 169); stroke: rgb(38, 50, 56); stroke-linecap: round; stroke-linejoin: round; transform-origin: 57.1658px 174.673px;" id="el1ep00jz6dic" class="animable"></path><path d="M44.83,184.14S51,176.38,52.19,179,44,193.69,43,192.7,42,187.92,44.83,184.14Z" style="fill: none; stroke: rgb(38, 50, 56); stroke-linecap: round; stroke-linejoin: round; transform-origin: 47.3438px 185.609px;" id="elmq84c0d2u9" class="animable"></path><path d="M64.33,153.3s-20.5-3.78-26.86-1.79" style="fill: none; stroke: rgb(38, 50, 56); stroke-linecap: round; stroke-linejoin: round; transform-origin: 50.9px 152.116px;" id="ela6rc2wfrbg9" class="animable"></path><path d="M63.73,158.27S47,162.45,40.45,167.63" style="fill: none; stroke: rgb(38, 50, 56); stroke-linecap: round; stroke-linejoin: round; transform-origin: 52.09px 162.95px;" id="elhcfv2s3n3y9" class="animable"></path><path d="M64.13,159.86s9.36,1.2,13.93,4.78,5,4.78,5,4.78" style="fill: none; stroke: rgb(38, 50, 56); stroke-linecap: round; stroke-linejoin: round; transform-origin: 73.595px 164.64px;" id="elbsg73tqs" class="animable"></path><path d="M81.84,147.92a25.55,25.55,0,0,0-6.56,2.79,44.63,44.63,0,0,1-9,3.58S59,166.23,57.37,176.78s-.2,28.66,0,29.45" style="fill: none; stroke: rgb(38, 50, 56); stroke-linecap: round; stroke-linejoin: round; transform-origin: 69.2195px 177.075px;" id="elzfo41q5e1is" class="animable"></path><path d="M59.76,169.22a114.16,114.16,0,0,1,7.36,14.72" style="fill: none; stroke: rgb(38, 50, 56); stroke-linecap: round; stroke-linejoin: round; transform-origin: 63.44px 176.58px;" id="el7lee5r5w36k" class="animable"></path><path d="M121.25,82.65a39.86,39.86,0,0,0,1.39-8.76c0-3.78-4-9,2.59-11.34s19.1-8.36,21.49-11.54,2.59-5.77,8.16-6.57,10.35-.59,17.51,3.78,9,9.56,9,9.56-2.79-2-18.71,1-24.28,12.74-20.1,13.13S169.21,62.15,174.78,61s8.76-1.79,12.14,1.79,4.38,11.54,4.38,11.54-9.36-6.37-20.3-5.37-28.06,9.75-25.67,10.75,16.91-5.78,27.26-4.18,16.72,2.58,17.51,6.56-2.78,6.57-2.78,6.57,2.19-3.78-5.77-8-20.9-3.18-20.9-2.19,7.36.2,12.54,2.79,11.94,6.37,9.75,7.76-7.17,4.58-8.16,7.36-.8,9-1.59,7-1.79-8-3.58-9.16-21.5-.39-21.5-.39S140,89.62,139,87.63s-1.39-5.38-6-4.38-4.38,3-1.79,7.36,9.35,9.35,9.35,9.35-10.94-6-15.92-6.56-7.76-2.59-6.77-4.78,2.79-4.18-.2-4.58-7.36-.39-7.76,2,3.59,5,3.59,5-16.12-4.38-19.9-7.56-7-5.38-5.78-7,7.37-.2,7.37-.2,5.77-4.77,12.53-2,9.16,6.57,10.35,7.56A4.93,4.93,0,0,0,121.25,82.65Z" style="fill: rgb(146, 227, 169); stroke: rgb(38, 50, 56); stroke-linecap: round; stroke-linejoin: round; transform-origin: 139.429px 73.922px;" id="elkflsbsc764" class="animable"></path><path d="M149.31,56.38c-.6-.2-8.76,8.16-12.94,14.93s-15.12,11.34-15.12,11.34,15.12-1.19,20.49-1,19.11,3,24.08,6.56" style="fill: none; stroke: rgb(38, 50, 56); stroke-linecap: round; stroke-linejoin: round; transform-origin: 143.535px 72.2932px;" id="el0f3uetaqlxj6" class="animable"></path><path d="M118.06,81.85s-16-3.48-17.72-1" style="fill: none; stroke: rgb(38, 50, 56); stroke-linecap: round; stroke-linejoin: round; transform-origin: 109.2px 80.9041px;" id="elxzqtnqth27g" class="animable"></path><path d="M129.05,82.18s10.69-3.81,15.57-6.41,20.62-10.54,32.84-10.38" style="fill: none; stroke: rgb(38, 50, 56); stroke-linecap: round; stroke-linejoin: round; transform-origin: 153.255px 73.7838px;" id="elvgjpb7y56dl" class="animable"></path><path d="M146.35,155s-7.15-9.61-5.14-10.95,22.12,3.8,27.25,5.36,14.52,1.79,25,3.58,11.84,4.91,14.74,5.13,4.92,0,6.71.9l1.78.89a37.15,37.15,0,0,0-6.25,2.23c-2,1.12-8.49,1.34-9.16,2.24s-10.28,5.14-21.67,8-27.25-8.71-31.72-11.39-8.26-4.92-8.71-7.15S146.35,155,146.35,155Z" style="fill: rgb(146, 227, 169); stroke: rgb(38, 50, 56); stroke-linecap: round; stroke-linejoin: round; transform-origin: 177.925px 158.33px;" id="elj19plz9ixp" class="animable"></path><path d="M146.35,155s4.47,4.69,6.7,5.13,15.86,4,26.36,4,27.92-2.9,27.92-2.9" style="fill: none; stroke: rgb(38, 50, 56); stroke-linecap: round; stroke-linejoin: round; transform-origin: 176.84px 159.565px;" id="el63b7v4b0egq" class="animable"></path><path d="M157.29,150.48s-2.68,4.91-4.46,6.48L151,158.52" style="fill: none; stroke: rgb(38, 50, 56); stroke-linecap: round; stroke-linejoin: round; transform-origin: 154.145px 154.5px;" id="eltd2wgn08vt" class="animable"></path><path d="M157.07,161.2s9.16-5.36,13.85-6.48a38.63,38.63,0,0,1,8-1.11" style="fill: none; stroke: rgb(38, 50, 56); stroke-linecap: round; stroke-linejoin: round; transform-origin: 167.995px 157.405px;" id="eldwkl7x9od37" class="animable"></path><path d="M170.92,164.1a51.17,51.17,0,0,1,13.85-4.46c8.49-1.57,10.5-2,10.5-2" style="fill: none; stroke: rgb(38, 50, 56); stroke-linecap: round; stroke-linejoin: round; transform-origin: 183.095px 160.87px;" id="elhm4pae9qw9j" class="animable"></path><path d="M158.86,161.65s4.91,4.91,10.72,6.48" style="fill: none; stroke: rgb(38, 50, 56); stroke-linecap: round; stroke-linejoin: round; transform-origin: 164.22px 164.89px;" id="elcdmin0o6a2t" class="animable"></path><path d="M89.09,126.89s-9.21-6.65-5.88-8.44,24.31,3.07,45,6.4,26.62,7.93,30.2,11.51,4.09,9,4.09,9-6.91.76-8.19,1.53-2.81-5.12-14.33-11-19.19-9.72-14.07-3.58,11.51,12.79,16.12,14.07l4.61,1.28s-12,4.35-14.59,3.07-18.93-23-21-22.77-2.3,1.79,1.28,6.14,11,10.23,11,10.23-16.12.51-16.89-.76S96,125.87,95.23,129.2s0,4.35,1.54,6.39,4.86,5.89,4.86,5.89-29.94,4.6-30.45,1.79S73,134.57,78.35,132Z" style="fill: rgb(146, 227, 169); stroke: rgb(38, 50, 56); stroke-linecap: round; stroke-linejoin: round; transform-origin: 116.806px 134.516px;" id="elldkx2dzx9ae" class="animable"></path><path d="M89.09,126.89s16.64-3.07,25.85-1.79" style="fill: none; stroke: rgb(38, 50, 56); stroke-linecap: round; stroke-linejoin: round; transform-origin: 102.015px 125.839px;" id="elhkskpxgldsh" class="animable"></path><path d="M133,270.39c0-.07,2.52-7.59,7.39-24.62A215.85,215.85,0,0,0,147,211.36l-2.54-.24A212.29,212.29,0,0,1,138,245.06c-4.84,17-7.33,24.45-7.35,24.52Z" style="fill: rgb(38, 50, 56); transform-origin: 138.825px 240.755px;" id="el114a8hkt422l" class="animable"></path><path d="M121.33,206s3.84-10.49,11.52-10.23S142.57,208.26,138,219s-15.61,17.15-21.24,20.47-18.17,11.26-20.22,13.05-3.07-6.39-5.88-13.05S86,212.1,92.16,202.12s18.68-17.65,23.8-13.56S121.33,206,121.33,206Z" style="fill: rgb(146, 227, 169); stroke: rgb(38, 50, 56); stroke-linecap: round; stroke-linejoin: round; transform-origin: 114.228px 220.104px;" id="elh18zltzoyrw" class="animable"></path><path d="M119.8,209s1,2.82-4.86,10S99.58,233.6,98.56,241.53" style="fill: none; stroke: rgb(38, 50, 56); stroke-linecap: round; stroke-linejoin: round; transform-origin: 109.212px 225.265px;" id="ell3o1ly9kh8b" class="animable"></path><path d="M117.5,208.26S99.07,205.45,94,208" style="fill: none; stroke: rgb(38, 50, 56); stroke-linecap: round; stroke-linejoin: round; transform-origin: 105.75px 207.595px;" id="elrxxz8yyzf4" class="animable"></path><path d="M120.31,212.1s6.91,6.14,7.93,12.29" style="fill: none; stroke: rgb(38, 50, 56); stroke-linecap: round; stroke-linejoin: round; transform-origin: 124.275px 218.245px;" id="ela0lnipn2qis" class="animable"></path><path d="M113.4,221.57s2.3,6.14,1.79,10.49" style="fill: none; stroke: rgb(38, 50, 56); stroke-linecap: round; stroke-linejoin: round; transform-origin: 114.332px 226.815px;" id="elql6az6qyufc" class="animable"></path><path d="M107,226.69s-9.72.77-11.51,5.12" style="fill: none; stroke: rgb(38, 50, 56); stroke-linecap: round; stroke-linejoin: round; transform-origin: 101.245px 229.25px;" id="el0aytmhyvc8bt" class="animable"></path><path d="M147.69,207s-6.65-3.32-3.07-7.67,10-2.56,16.12-.51,5.63,4.09,22.52,4.35S206,206.47,206,206.47s-8.7,0-14.07,4.1-33,8.7-39.92,9.72-16.38-2.81-17.4-8.44S147.69,207,147.69,207Z" style="fill: rgb(146, 227, 169); stroke: rgb(38, 50, 56); stroke-linecap: round; stroke-linejoin: round; transform-origin: 170.279px 208.553px;" id="elbm925m67ogv" class="animable"></path><path d="M194,206.73s-2.31,1-16.64,2.3a108.9,108.9,0,0,1-26.61-1,81.25,81.25,0,0,1,12.12-4.14" style="fill: none; stroke: rgb(38, 50, 56); stroke-linecap: round; stroke-linejoin: round; transform-origin: 172.375px 206.657px;" id="elr7ski798fni" class="animable"></path><path d="M173.6,206.1s-8,1.79-11.61,3.57c0,0,7.14,2.69,14.07,2" style="fill: none; stroke: rgb(38, 50, 56); stroke-linecap: round; stroke-linejoin: round; transform-origin: 169.025px 208.942px;" id="elo1jofte767" class="animable"></path><path d="M150.76,208s3.18,5.91,6.09,7" style="fill: none; stroke: rgb(38, 50, 56); stroke-linecap: round; stroke-linejoin: round; transform-origin: 153.805px 211.5px;" id="elh2mm17fcw1d" class="animable"></path><path d="M170,265.9H95.24s-9.15,25.63-5.49,42.72c.29,1.38.64,2.76,1,4.13a42.19,42.19,0,0,0,40.6,30.34h2.12c22.19,0,41-17.1,42.22-39.26q0-.81.06-1.62C176.09,280.55,170,265.9,170,265.9Z" style="fill: rgb(38, 50, 56); stroke: rgb(38, 50, 56); stroke-linecap: round; stroke-linejoin: round; transform-origin: 132.325px 304.495px;" id="eligzjakl4bdq" class="animable"></path><ellipse cx="132.56" cy="267.11" rx="37.43" ry="8.64" style="fill: rgb(38, 50, 56); stroke: rgb(38, 50, 56); stroke-linecap: round; stroke-linejoin: round; transform-origin: 132.56px 267.11px;" id="elbpoi45028gi" class="animable"></ellipse></g><g id="freepik--Mouse--inject-2" class="animable animator-active" style="transform-origin: 427.334px 412.523px;"><path d="M437.87,417.64s-3.55-4.29-10.45-11-.93-7.09,9.89-10.26,22.75-10.63,13.61-23.13-28.16-10.81-30.21-9.51" style="fill: none; stroke: rgb(38, 50, 56); stroke-linecap: round; stroke-linejoin: round; stroke-width: 2px; transform-origin: 437.44px 390.245px;" id="el6gjn47l4npn" class="animable"></path><path d="M433.76,419.32s.38-3.73,4.11-3.54,3.91,4.85,3.91,4.85Z" style="fill: rgb(255, 255, 255); stroke: rgb(38, 50, 56); stroke-linecap: round; stroke-linejoin: round; transform-origin: 437.77px 418.201px;" id="elil4phe7arlq" class="animable"></path><path d="M428.91,418a31.83,31.83,0,0,0-25.83,13.53c-.22.33-.44.66-.65,1-5,8-6,13.42-1.31,21.82s20.89,8.95,32.08,6.71,18.65-20.51,20.71-24.25,4.1-8.76,1.3-12.49S444.77,418,432.64,418Z" style="fill: rgb(255, 255, 255); stroke: rgb(38, 50, 56); stroke-linecap: round; stroke-linejoin: round; transform-origin: 427.334px 440.094px;" id="elm3nh9obu4l" class="animable"></path><path d="M453.91,436.85c1.45-2.64,2.9-5.94,2.62-9a27.54,27.54,0,0,0-7.29,6c-5.59,6.16-10.63,22.2-27.23,23.87-16.06,1.63-22.69-7.75-23.1-8.36a27.78,27.78,0,0,0,2.21,5c4.67,8.39,20.89,8.95,32.08,6.71S451.85,440.58,453.91,436.85Z" style="fill: rgb(255, 255, 255); stroke: rgb(38, 50, 56); stroke-linecap: round; stroke-linejoin: round; transform-origin: 427.737px 445.023px;" id="elo9p7gcp5tha" class="animable"></path></g><g id="freepik--Computer--inject-2" class="animable" style="transform-origin: 304.77px 237.703px;"><polygon points="383.72 414.07 446.57 334.29 446.57 326.18 383.03 399.23 383.72 414.07" style="fill: rgb(219, 219, 219); stroke: rgb(38, 50, 56); stroke-linecap: round; stroke-linejoin: round; transform-origin: 414.8px 370.125px;" id="elj4zyh2jgl0m" class="animable"></polygon><polygon points="165.26 367.69 165.67 379.64 383.72 414.07 383.95 400.85 165.26 367.69" style="fill: rgb(38, 50, 56); stroke: rgb(38, 50, 56); stroke-linecap: round; stroke-linejoin: round; transform-origin: 274.605px 390.88px;" id="elf29gpbdklob" class="animable"></polygon><polygon points="256.05 271.41 159.26 325.44 385.65 352.95 450.28 288.32 256.05 271.41" style="fill: rgb(255, 255, 255); stroke: rgb(38, 50, 56); stroke-linecap: round; stroke-linejoin: round; transform-origin: 304.77px 312.18px;" id="ely9trqdxdzob" class="animable"></polygon><path d="M263.34,282.68s-34.47,30.83-34.14,33.15,2.32,6,7.62,7.95,77.23,10,82.87,10.28,38.45-5.64,49.05-12.93,10.61-5,7-12.59-23.53-16.25-23.53-16.25Z" style="fill: rgb(219, 219, 219); stroke: rgb(38, 50, 56); stroke-linecap: round; stroke-linejoin: round; transform-origin: 303.552px 308.375px;" id="el1ho2yoxhy36" class="animable"></path><path d="M255.05,280s7,19.23,35.47,22.21,41.43-7,41.43-7Z" style="fill: rgb(38, 50, 56); stroke: rgb(38, 50, 56); stroke-linecap: round; stroke-linejoin: round; transform-origin: 293.5px 291.383px;" id="elv4g3m8y6u0p" class="animable"></path><path d="M420.45,244.9s-3.65,39.44-4.64,41.1-4.31,2.65-7,3.31-50.71,10.94-50.71,10.94l.33-9.61Z" style="fill: rgb(184, 184, 184); stroke: rgb(38, 50, 56); stroke-linecap: round; stroke-linejoin: round; transform-origin: 389.275px 272.575px;" id="ely1tamws2p1m" class="animable"></path><path d="M358.14,300.25S216.6,283,199.37,281.36l-.33-8,159.43,17.24Z" style="fill: rgb(38, 50, 56); stroke: rgb(38, 50, 56); stroke-linecap: round; stroke-linejoin: round; transform-origin: 278.755px 286.805px;" id="elsps3hf0tkss" class="animable"></path><path d="M182.46,69.89,165.89,270.75s46.07,7.95,96.46,14.58S387,293,387,293L409.18,64.58s-89.49-4.3-128.6-3S182.46,69.89,182.46,69.89Z" style="fill: rgb(232, 232, 232); stroke: rgb(38, 50, 56); stroke-linecap: round; stroke-linejoin: round; transform-origin: 287.535px 177.168px;" id="el59iy99w40cn" class="animable"></path><path d="M198.71,92.43s-13.59,112.36-13.26,144.51l180.31,13.92S375,109.33,377.69,90.77l-97.78-1.33Z" style="fill: rgb(146, 227, 169); stroke: rgb(38, 50, 56); stroke-linecap: round; stroke-linejoin: round; transform-origin: 281.567px 170.15px;" id="elzjg8fd838e" class="animable"></path><path d="M198.71,92.43s-13.59,112.36-13.26,144.51l4.22.33c-.07-5.13,0-17.64,1.41-43.42,2-36.46,10.94-97.78,10.94-97.78s37.12-2.65,76.9-3.64c37.32-.94,91.86.76,98.44,1,.12-1,.23-1.93.33-2.63l-97.78-1.33Z" style="fill: rgb(38, 50, 56); stroke: rgb(38, 50, 56); stroke-linecap: round; stroke-linejoin: round; transform-origin: 281.567px 163.37px;" id="elngpltti9kd" class="animable"></path><ellipse cx="320.52" cy="278.87" rx="13.76" ry="14.42" style="fill: rgb(232, 232, 232); stroke: rgb(38, 50, 56); stroke-linecap: round; stroke-linejoin: round; transform-origin: 320.52px 278.87px;" id="el77hipl33pm9" class="animable"></ellipse><circle cx="325.65" cy="283.01" r="3.65" style="fill: rgb(232, 232, 232); stroke: rgb(38, 50, 56); stroke-linecap: round; stroke-linejoin: round; transform-origin: 325.65px 283.01px;" id="elylqtf2csav9" class="animable"></circle><path d="M355.15,280.69a3.32,3.32,0,1,1-3.31-3.31A3.32,3.32,0,0,1,355.15,280.69Z" style="fill: rgb(232, 232, 232); stroke: rgb(38, 50, 56); stroke-linecap: round; stroke-linejoin: round; transform-origin: 351.83px 280.7px;" id="ele0pi9z8kwu" class="animable"></path><path d="M367.42,282.35A3.32,3.32,0,1,1,364.1,279,3.32,3.32,0,0,1,367.42,282.35Z" style="fill: rgb(232, 232, 232); stroke: rgb(38, 50, 56); stroke-linecap: round; stroke-linejoin: round; transform-origin: 364.1px 282.32px;" id="elcblhdb4qat9" class="animable"></path><polygon points="409.18 64.58 418.79 88.78 395.26 292.96 386.97 292.96 409.18 64.58" style="fill: rgb(255, 255, 255); stroke: rgb(38, 50, 56); stroke-linecap: round; stroke-linejoin: round; transform-origin: 402.88px 178.77px;" id="elznz6dss5abk" class="animable"></polygon><path d="M414.48,127.23l25.19,24.53-7.62,88.5a155.42,155.42,0,0,0-20.22,19.22c-10.94,12.26-14.91,16.9-14.91,16.9Z" style="fill: rgb(255, 255, 255); stroke: rgb(38, 50, 56); stroke-linecap: round; stroke-linejoin: round; transform-origin: 418.295px 201.805px;" id="elhye5f1o0xwp" class="animable"></path><polygon points="385.65 352.95 384.83 401.16 449.62 325.11 450.28 288.32 385.65 352.95" style="fill: rgb(255, 255, 255); stroke: rgb(38, 50, 56); stroke-linecap: round; stroke-linejoin: round; transform-origin: 417.555px 344.74px;" id="el8yj7szc0ft8" class="animable"></polygon><polygon points="384.83 401.16 160.59 367.54 159.26 325.44 385.65 352.95 384.83 401.16" style="fill: rgb(232, 232, 232); stroke: rgb(38, 50, 56); stroke-linecap: round; stroke-linejoin: round; transform-origin: 272.455px 363.3px;" id="elqsdkutr3btb" class="animable"></polygon><polygon points="176.28 344.38 176.48 351.56 183.66 352.75 183.85 345.78 176.28 344.38" style="fill: rgb(146, 227, 169); stroke: rgb(38, 50, 56); stroke-linecap: round; stroke-linejoin: round; transform-origin: 180.065px 348.565px;" id="eluct99gcgyji" class="animable"></polygon><polygon points="281.13 357.63 232.6 351.15 232.29 348.28 281.52 354.66 281.13 357.63" style="fill: rgb(38, 50, 56); stroke: rgb(38, 50, 56); stroke-linecap: round; stroke-linejoin: round; transform-origin: 256.905px 352.955px;" id="el54boajir71m" class="animable"></polygon><polygon points="371.43 369.19 350.29 366.42 350.49 363.8 334.99 361.51 331.81 364.13 291.9 359.03 292.28 356.05 330.9 360.99 334.11 358.35 352.47 361.5 352.27 364.07 371.82 366.22 371.43 369.19" style="fill: rgb(38, 50, 56); stroke: rgb(38, 50, 56); stroke-linecap: round; stroke-linejoin: round; transform-origin: 331.86px 362.62px;" id="el4pl21v3979l" class="animable"></polygon><path d="M314.82,356.84l10.88.93s-1.23,2.65-1.53,2.65-10.39-.41-10.39-.41Z" style="fill: rgb(255, 255, 255); stroke: rgb(38, 50, 56); stroke-linecap: round; stroke-linejoin: round; transform-origin: 319.74px 358.63px;" id="el1oq8zblrq1z" class="animable"></path><polygon points="325.69 357.77 329.46 355.94 328.65 358.08 324.17 360.42 325.69 357.77" style="fill: rgb(255, 255, 255); stroke: rgb(38, 50, 56); stroke-linecap: round; stroke-linejoin: round; transform-origin: 326.815px 358.18px;" id="elrzfx6xixic" class="animable"></polygon><path d="M329.46,355.94l-13.24-1.63a6.42,6.42,0,0,0-2.24-2.75c-1.43-.82-3.46-1-5.3,2.24l-.61,1.63,6.75,1.41,10.88.93Z" style="fill: rgb(255, 255, 255); stroke: rgb(38, 50, 56); stroke-linecap: round; stroke-linejoin: round; transform-origin: 318.765px 354.411px;" id="elm4n3xrirehh" class="animable"></path><path d="M314.82,356.84c0,2.26-1.52,4.09-3.39,4.09S308,359.1,308,356.84s1.52-4.09,3.39-4.09S314.82,354.58,314.82,356.84Z" style="fill: rgb(255, 255, 255); stroke: rgb(38, 50, 56); stroke-linecap: round; stroke-linejoin: round; transform-origin: 311.41px 356.84px;" id="elegspif6k8bu" class="animable"></path><polyline points="331.65 365.52 331.65 375.11 334.41 363.35" style="fill: none; stroke: rgb(38, 50, 56); stroke-linecap: round; stroke-linejoin: round; transform-origin: 333.03px 369.23px;" id="elj4e856nbgao" class="animable"></polyline><polyline points="331.65 375.11 352.42 378.16 352.56 367.85" style="fill: none; stroke: rgb(38, 50, 56); stroke-linecap: round; stroke-linejoin: round; transform-origin: 342.105px 373.005px;" id="elh59fl72wimh" class="animable"></polyline><line x1="352.56" y1="360.88" x2="352.71" y2="356.23" style="fill: none; stroke: rgb(38, 50, 56); stroke-linecap: round; stroke-linejoin: round; transform-origin: 352.635px 358.555px;" id="el5xn61yr9fhd" class="animable"></line><line x1="330.9" y1="360.99" x2="330.92" y2="353.91" style="fill: none; stroke: rgb(38, 50, 56); stroke-linecap: round; stroke-linejoin: round; transform-origin: 330.91px 357.45px;" id="el9ykn5ishs9" class="animable"></line><line x1="286.05" y1="347.81" x2="286.77" y2="372.93" style="fill: rgb(255, 255, 255); stroke: rgb(38, 50, 56); stroke-linecap: round; stroke-linejoin: round; transform-origin: 286.41px 360.37px;" id="elfekatmi9xj" class="animable"></line><line x1="302.6" y1="371.62" x2="329.91" y2="375.11" style="fill: none; stroke: rgb(38, 50, 56); stroke-linecap: round; stroke-linejoin: round; transform-origin: 316.255px 373.365px;" id="el44k673em69k" class="animable"></line><line x1="302.17" y1="362.04" x2="302.02" y2="370.32" style="fill: none; stroke: rgb(38, 50, 56); stroke-linecap: round; stroke-linejoin: round; transform-origin: 302.095px 366.18px;" id="elchqo8aikmhi" class="animable"></line><polygon points="229.55 346.5 230.28 358.7 284.16 366.54 284.01 353.62 229.55 346.5" style="fill: none; stroke: rgb(38, 50, 56); stroke-linecap: round; stroke-linejoin: round; transform-origin: 256.855px 356.52px;" id="el0hj6a79joq6t" class="animable"></polygon><polygon points="268.69 361.29 274.85 362.21 274.85 365.89 268.69 365.15 268.69 361.29" style="fill: rgb(255, 255, 255); stroke: rgb(38, 50, 56); stroke-linecap: round; stroke-linejoin: round; transform-origin: 271.77px 363.59px;" id="el0rys5hmwe0t8" class="animable"></polygon><polygon points="274.85 362.21 276.59 360.74 276.59 364.14 274.85 365.89 274.85 362.21" style="fill: rgb(255, 255, 255); stroke: rgb(38, 50, 56); stroke-linecap: round; stroke-linejoin: round; transform-origin: 275.72px 363.315px;" id="elbb44cwjmadc" class="animable"></polygon><polygon points="276.59 360.74 270.44 359.92 268.69 361.29 274.85 362.21 276.59 360.74" style="fill: rgb(255, 255, 255); stroke: rgb(38, 50, 56); stroke-linecap: round; stroke-linejoin: round; transform-origin: 272.64px 361.065px;" id="eloqyhqfgxznp" class="animable"></polygon><polyline points="227.64 375.11 225.56 339.16 376.3 358.88 375.84 395.98" style="fill: none; stroke: rgb(38, 50, 56); stroke-linecap: round; stroke-linejoin: round; transform-origin: 300.93px 367.57px;" id="elwid7dli90ca" class="animable"></polyline><line x1="374.45" y1="384.85" x2="227.88" y2="364.44" style="fill: rgb(255, 255, 255); stroke: rgb(38, 50, 56); stroke-linecap: round; stroke-linejoin: round; transform-origin: 301.165px 374.645px;" id="el0v2o30dgjkd" class="animable"></line><line x1="223.47" y1="363.75" x2="161.78" y2="354.7" style="fill: rgb(255, 255, 255); stroke: rgb(38, 50, 56); stroke-linecap: round; stroke-linejoin: round; transform-origin: 192.625px 359.225px;" id="elvzagh4qn2g9" class="animable"></line></g><g id="freepik--Keyboard--inject-2" class="animable" style="transform-origin: 241.655px 424.175px;"><polygon points="145.97 373 397.35 410.47 363.62 465.74 84.77 414.84 145.97 373" style="fill: rgb(255, 255, 255); stroke: rgb(38, 50, 56); stroke-linecap: round; stroke-linejoin: round; transform-origin: 241.06px 419.37px;" id="eld7d1ztzz40f" class="animable"></polygon><polygon points="363.62 465.74 364.32 475.35 398.54 417.65 397.35 410.47 363.62 465.74" style="fill: rgb(255, 255, 255); stroke: rgb(38, 50, 56); stroke-linecap: round; stroke-linejoin: round; transform-origin: 381.08px 442.91px;" id="elwyzcpmeh4gd" class="animable"></polygon><polygon points="363.62 465.74 84.77 414.84 85.09 422.78 364.32 475.35 363.62 465.74" style="fill: rgb(232, 232, 232); stroke: rgb(38, 50, 56); stroke-linecap: round; stroke-linejoin: round; transform-origin: 224.545px 445.095px;" id="el0sjpo1rnpuo" class="animable"></polygon><polygon points="335.59 413.9 309.39 446.3 309.39 450.1 360.19 459.9 380.99 425.3 379.79 420.9 335.59 413.9" style="fill: rgb(219, 219, 219); stroke: rgb(38, 50, 56); stroke-linecap: round; stroke-linejoin: round; transform-origin: 345.19px 436.9px;" id="elq21wuh53gg" class="animable"></polygon><polygon points="309.39 446.3 359.59 454.7 379.79 420.9 335.59 413.9 309.39 446.3" style="fill: rgb(219, 219, 219); stroke: rgb(38, 50, 56); stroke-linecap: round; stroke-linejoin: round; transform-origin: 344.59px 434.3px;" id="elyojxay43iv" class="animable"></polygon><polygon points="293.39 407.9 282.59 420.1 280.87 423.83 316.99 429.5 325.79 416.7 325.19 413.1 293.39 407.9" style="fill: rgb(219, 219, 219); stroke: rgb(38, 50, 56); stroke-linecap: round; stroke-linejoin: round; transform-origin: 303.33px 418.7px;" id="elwj9klrcdsf" class="animable"></polygon><polygon points="301.99 399.5 297.39 403.5 295.59 407.1 328.61 412.56 333.39 408.1 331.99 404.5 301.99 399.5" style="fill: rgb(219, 219, 219); stroke: rgb(38, 50, 56); stroke-linecap: round; stroke-linejoin: round; transform-origin: 314.49px 406.03px;" id="elddej55ecvi9" class="animable"></polygon><polygon points="293.19 402.3 288.19 406.9 244.79 399.3 246.59 395.7 250.59 391.9 289.99 397.7 293.19 402.3" style="fill: rgb(219, 219, 219); stroke: rgb(38, 50, 56); stroke-linecap: round; stroke-linejoin: round; transform-origin: 268.99px 399.4px;" id="el59ome0gly67" class="animable"></polygon><polygon points="243.79 393.9 238.79 399.7 197.79 392.9 199.39 387.5 204.59 384.7 241.79 390.3 243.79 393.9" style="fill: rgb(219, 219, 219); stroke: rgb(38, 50, 56); stroke-linecap: round; stroke-linejoin: round; transform-origin: 220.79px 392.2px;" id="elxx85erky55" class="animable"></polygon><polygon points="196.99 386.3 189.99 392.1 152.39 385.1 153.99 379.9 158.59 376.9 195.19 382.9 196.99 386.3" style="fill: rgb(219, 219, 219); stroke: rgb(38, 50, 56); stroke-linecap: round; stroke-linejoin: round; transform-origin: 174.69px 384.5px;" id="el465xgh8gdte" class="animable"></polygon><polygon points="282.59 407.1 127.99 382.3 100.39 401.9 99.99 403.7 93.99 407.9 92.79 412.5 107.57 415.21 115.39 410.7 121.39 411.5 118.19 417.5 227.59 437.1 233.99 431.3 243.19 432.5 239.19 439.3 258.59 443.1 286.18 411.62 282.59 407.1" style="fill: rgb(219, 219, 219); stroke: rgb(38, 50, 56); stroke-linecap: round; stroke-linejoin: round; transform-origin: 189.485px 412.7px;" id="elu6jcguf7h17" class="animable"></polygon><polygon points="278.5 413.32 120.31 387.79 114.39 391.84 251.4 414.26 244.71 420.64 268.38 424.22 278.5 413.32" style="fill: rgb(255, 255, 255); stroke: rgb(38, 50, 56); stroke-linecap: round; stroke-linejoin: round; transform-origin: 196.445px 406.005px;" id="elx5q5j2g7g8" class="animable"></polygon><polygon points="246.42 415.35 241.59 420.02 127.94 400.71 132.92 396.98 246.42 415.35" style="fill: rgb(255, 255, 255); stroke: rgb(38, 50, 56); stroke-linecap: round; stroke-linejoin: round; transform-origin: 187.18px 408.5px;" id="el22v02eu1vjj" class="animable"></polygon><polygon points="130.58 403.36 125.13 406.63 230.54 424.38 235.21 421.11 130.58 403.36" style="fill: rgb(255, 255, 255); stroke: rgb(38, 50, 56); stroke-linecap: round; stroke-linejoin: round; transform-origin: 180.17px 413.87px;" id="el12mofyw84bs" class="animable"></polygon><polygon points="218.09 425 213.41 428.58 226.65 431.23 230.85 427.34 218.09 425" style="fill: rgb(255, 255, 255); stroke: rgb(38, 50, 56); stroke-linecap: round; stroke-linejoin: round; transform-origin: 222.13px 428.115px;" id="elbl4qlr61t58" class="animable"></polygon><polyline points="238.95 421.26 233.97 425.16 250.78 427.49 254.99 423.75 237.7 421.42" style="fill: rgb(255, 255, 255); stroke: rgb(38, 50, 56); stroke-linecap: round; stroke-linejoin: round; transform-origin: 244.48px 424.375px;" id="els1ele2v8bp" class="animable"></polyline><polygon points="258.72 424.69 254.36 428.58 261.99 429.52 265.88 425.94 258.72 424.69" style="fill: rgb(255, 255, 255); stroke: rgb(38, 50, 56); stroke-linecap: round; stroke-linejoin: round; transform-origin: 260.12px 427.105px;" id="eljwmbbmagj7d" class="animable"></polygon><polygon points="260.75 432.63 247.2 429.98 243.15 433.56 256.85 436.21 260.75 432.63" style="fill: rgb(255, 255, 255); stroke: rgb(38, 50, 56); stroke-linecap: round; stroke-linejoin: round; transform-origin: 251.95px 433.095px;" id="eltr0xgvf6eec" class="animable"></polygon><polygon points="213.26 424.69 208.9 428.43 136.66 415.04 141.48 412.08 213.26 424.69" style="fill: rgb(255, 255, 255); stroke: rgb(38, 50, 56); stroke-linecap: round; stroke-linejoin: round; transform-origin: 174.96px 420.255px;" id="elrkkj6sho84p" class="animable"></polygon><polygon points="137.12 411.45 131.52 414.1 121.24 412.55 126.22 409.27 137.12 411.45" style="fill: rgb(255, 255, 255); stroke: rgb(38, 50, 56); stroke-linecap: round; stroke-linejoin: round; transform-origin: 129.18px 411.685px;" id="elwi69gq3swxm" class="animable"></polygon><polygon points="126.38 402.42 121.4 405.38 100.39 401.9 105.98 398.69 126.38 402.42" style="fill: rgb(255, 255, 255); stroke: rgb(38, 50, 56); stroke-linecap: round; stroke-linejoin: round; transform-origin: 113.385px 402.035px;" id="el1bwtgsz608g" class="animable"></polygon><polygon points="108.16 396.51 124.2 399 129.34 396.2 112.52 393.24 108.16 396.51" style="fill: rgb(255, 255, 255); stroke: rgb(38, 50, 56); stroke-linecap: round; stroke-linejoin: round; transform-origin: 118.75px 396.12px;" id="elbu3ddn0z7g4" class="animable"></polygon><polygon points="97.73 405.38 111.74 407.41 106.14 409.74 93.99 407.9 97.73 405.38" style="fill: rgb(255, 255, 255); stroke: rgb(38, 50, 56); stroke-linecap: round; stroke-linejoin: round; transform-origin: 102.865px 407.56px;" id="el178lvcnq9bc" class="animable"></polygon><polygon points="122.8 385.76 255.76 407.72 259.5 403.67 127.99 382.3 122.8 385.76" style="fill: rgb(255, 255, 255); stroke: rgb(38, 50, 56); stroke-linecap: round; stroke-linejoin: round; transform-origin: 191.15px 395.01px;" id="elg349r0w88qi" class="animable"></polygon><polygon points="262.61 403.98 258.88 408.03 279.27 411.14 282.59 407.1 262.61 403.98" style="fill: rgb(255, 255, 255); stroke: rgb(38, 50, 56); stroke-linecap: round; stroke-linejoin: round; transform-origin: 270.735px 407.56px;" id="elfudxrbu0yv9" class="animable"></polygon><polygon points="153.99 379.9 190.22 386.08 195.19 382.9 158.59 376.9 153.99 379.9" style="fill: rgb(255, 255, 255); stroke: rgb(38, 50, 56); stroke-linecap: round; stroke-linejoin: round; transform-origin: 174.59px 381.49px;" id="elf0buhus7ad" class="animable"></polygon><polygon points="199.39 387.5 237.08 393.86 241.79 390.3 204.59 384.7 199.39 387.5" style="fill: rgb(255, 255, 255); stroke: rgb(38, 50, 56); stroke-linecap: round; stroke-linejoin: round; transform-origin: 220.59px 389.28px;" id="elxvkx2vi3ls" class="animable"></polygon><polygon points="246.59 395.7 286.9 401.96 289.99 397.7 250.59 391.9 246.59 395.7" style="fill: rgb(255, 255, 255); stroke: rgb(38, 50, 56); stroke-linecap: round; stroke-linejoin: round; transform-origin: 268.29px 396.93px;" id="elxynzw2e5o9c" class="animable"></polygon><polygon points="321.64 417.38 325.19 413.1 293.39 407.9 289.39 412.42 321.64 417.38" style="fill: rgb(255, 255, 255); stroke: rgb(38, 50, 56); stroke-linecap: round; stroke-linejoin: round; transform-origin: 307.29px 412.64px;" id="elsvghyqzfh9" class="animable"></polygon><polygon points="287.27 414.82 282.59 420.1 315.22 425.14 319.45 420.03 287.27 414.82" style="fill: rgb(255, 255, 255); stroke: rgb(38, 50, 56); stroke-linecap: round; stroke-linejoin: round; transform-origin: 301.02px 419.98px;" id="elv5424zogm1" class="animable"></polygon><polygon points="297.39 403.5 326.99 408.23 331.99 404.5 301.99 399.5 297.39 403.5" style="fill: rgb(255, 255, 255); stroke: rgb(38, 50, 56); stroke-linecap: round; stroke-linejoin: round; transform-origin: 314.69px 403.865px;" id="elo2yr0ie3peb" class="animable"></polygon><polygon points="376.51 426.36 331.59 418.92 335.59 413.9 379.79 420.9 376.51 426.36" style="fill: rgb(255, 255, 255); stroke: rgb(38, 50, 56); stroke-linecap: round; stroke-linejoin: round; transform-origin: 355.69px 420.13px;" id="el5sry1qsmckf" class="animable"></polygon><polygon points="374.75 428.39 330.51 420.94 326.18 425.82 363.11 431.77 358.78 437.86 368.12 439.62 374.75 428.39" style="fill: rgb(255, 255, 255); stroke: rgb(38, 50, 56); stroke-linecap: round; stroke-linejoin: round; transform-origin: 350.465px 430.28px;" id="elehy3ivd7gd" class="animable"></polygon><polygon points="324.15 427.98 357.7 433.39 353.91 438.53 320.76 432.44 324.15 427.98" style="fill: rgb(255, 255, 255); stroke: rgb(38, 50, 56); stroke-linecap: round; stroke-linejoin: round; transform-origin: 339.23px 433.255px;" id="elr23bdakdorn" class="animable"></polygon><polygon points="318.87 434.88 352.56 440.43 349.45 444.49 315.89 438.53 318.87 434.88" style="fill: rgb(255, 255, 255); stroke: rgb(38, 50, 56); stroke-linecap: round; stroke-linejoin: round; transform-origin: 334.225px 439.685px;" id="elwl7jn66o9dm" class="animable"></polygon><polygon points="357.02 440.43 348.77 452.47 359.59 454.7 366.5 442.46 357.02 440.43" style="fill: rgb(255, 255, 255); stroke: rgb(38, 50, 56); stroke-linecap: round; stroke-linejoin: round; transform-origin: 357.635px 447.565px;" id="elme7ssrb07i" class="animable"></polygon><polygon points="347.96 446.92 343.63 452.06 309.39 446.3 314.13 441.51 347.96 446.92" style="fill: rgb(255, 255, 255); stroke: rgb(38, 50, 56); stroke-linecap: round; stroke-linejoin: round; transform-origin: 328.675px 446.785px;" id="elay7390id19k" class="animable"></polygon></g><defs>     <filter id="active" height="200%">         <feMorphology in="SourceAlpha" result="DILATED" operator="dilate" radius="2"></feMorphology>                <feFlood flood-color="#32DFEC" flood-opacity="1" result="PINK"></feFlood>        <feComposite in="PINK" in2="DILATED" operator="in" result="OUTLINE"></feComposite>        <feMerge>            <feMergeNode in="OUTLINE"></feMergeNode>            <feMergeNode in="SourceGraphic"></feMergeNode>        </feMerge>    </filter>    <filter id="hover" height="200%">        <feMorphology in="SourceAlpha" result="DILATED" operator="dilate" radius="2"></feMorphology>                <feFlood flood-color="#ff0000" flood-opacity="0.5" result="PINK"></feFlood>        <feComposite in="PINK" in2="DILATED" operator="in" result="OUTLINE"></feComposite>        <feMerge>            <feMergeNode in="OUTLINE"></feMergeNode>            <feMergeNode in="SourceGraphic"></feMergeNode>        </feMerge>            <feColorMatrix type="matrix" values="0   0   0   0   0                0   1   0   0   0                0   0   0   0   0                0   0   0   1   0 "></feColorMatrix>    </filter></defs></svg>